<svg width="505" height="223" viewBox="0 0 505 223" fill="none" xmlns="http://www.w3.org/2000/svg">
<g clip-path="url(#clip0)">
<path d="M150.239 182.987C148.503 196.59 142.119 209.035 135.308 221.024C135.083 221.432 134.851 221.834 134.614 222.242H63.8285C62.3969 221.87 60.9837 221.462 59.5765 221.024C51.5815 218.59 44.0336 214.876 37.2261 210.028C11.1842 191.266 1.1633 155.812 5.68953 124.044C8.50396 104.307 17.1662 84.1559 34.034 73.5259C42.9401 67.9033 54.3801 66.0758 64.6325 68.1653C64.9008 68.214 65.1688 68.2749 65.4427 68.3297C74.2635 70.3156 82.1217 75.2499 86.5931 83.1995C94.634 97.4845 89.846 115.181 85.8927 131.08C81.9512 146.979 79.8129 166.01 91.2532 177.736C87.4763 166.619 91.2044 153.357 100.226 145.84C107.043 140.169 116.534 138.043 125.19 139.803C126.018 139.98 126.835 140.181 127.639 140.425C129.582 140.994 131.456 141.778 133.225 142.764C146.718 150.299 152.182 167.655 150.239 182.987Z" fill="#F2F2F2"/>
<path d="M108.267 221.024C110.229 221.481 112.196 221.883 114.176 222.242H103.473C102.072 221.864 100.677 221.462 99.2943 221.024C96.2545 220.073 93.2614 218.983 90.3151 217.752C78.4973 212.794 67.6114 205.35 59.3754 195.445C55.3475 190.646 52.0583 185.273 49.6166 179.503C46.9688 172.981 45.2861 166.109 44.6216 159.102C43.129 144.725 44.6519 129.953 47.4967 115.833C50.4325 101.197 55.1714 86.9828 61.6051 73.5138C62.3787 71.8995 63.1788 70.2953 64.0052 68.7013C64.062 68.5701 64.1481 68.4536 64.2568 68.3607C64.3655 68.2678 64.494 68.201 64.6325 68.1653C64.9137 68.1108 65.205 68.1699 65.4427 68.3297C65.728 68.4934 65.9396 68.7604 66.0337 69.0755C66.1278 69.3907 66.0972 69.7299 65.9484 70.0232C59.3149 82.9594 54.2866 96.6575 50.975 110.813C47.7343 124.623 45.8946 139.072 46.522 153.272C47.1189 166.54 50.5854 179.588 58.4495 190.437C65.6316 200.342 75.5487 208.152 86.52 213.47C93.4642 216.792 100.759 219.326 108.267 221.024V221.024Z" fill="white"/>
<path d="M131.757 222.242H128.601C128.248 221.84 127.907 221.432 127.572 221.024C120.384 212.291 115.515 201.886 113.415 190.772C110.864 176.903 112.848 162.581 119.074 149.928C120.811 146.38 122.857 142.992 125.19 139.803C126.018 139.98 126.835 140.181 127.639 140.425C121.503 148.553 117.377 158.017 115.595 168.044C114.006 177.44 114.535 187.072 117.142 196.238C119.749 205.403 124.37 213.871 130.666 221.024C131.019 221.432 131.385 221.84 131.757 222.242Z" fill="white"/>
<path d="M416.019 211.882C416.477 215.472 418.162 218.757 419.959 221.921C420.018 222.028 420.08 222.134 420.142 222.242H438.824C439.202 222.144 439.575 222.036 439.946 221.921C442.056 221.278 444.048 220.298 445.845 219.019C452.718 214.067 455.362 204.71 454.168 196.326C453.425 191.117 451.139 185.799 446.687 182.993C444.27 181.521 441.386 181.016 438.612 181.578C438.541 181.591 438.47 181.607 438.398 181.622C437.243 181.845 436.149 182.31 435.187 182.986C434.225 183.663 433.417 184.535 432.816 185.546C430.694 189.316 431.957 193.987 433.001 198.183C434.041 202.379 434.605 207.401 431.586 210.496C432.028 209.202 432.118 207.813 431.846 206.473C431.574 205.132 430.95 203.888 430.038 202.869C429.126 201.849 427.959 201.091 426.657 200.672C425.355 200.253 423.965 200.189 422.629 200.485C422.411 200.532 422.195 200.585 421.983 200.649C421.47 200.799 420.976 201.006 420.509 201.266C416.948 203.255 415.506 207.835 416.019 211.882Z" fill="#F2F2F2"/>
<path d="M427.096 221.921C426.578 222.041 426.059 222.147 425.536 222.242H428.361C428.731 222.142 429.099 222.036 429.464 221.921C430.266 221.67 431.056 221.382 431.833 221.057C434.987 219.777 437.788 217.758 439.999 215.17C441.062 213.903 441.93 212.485 442.575 210.962C443.273 209.241 443.717 207.428 443.893 205.578C444.213 201.755 443.958 197.906 443.134 194.159C442.359 190.296 441.109 186.545 439.411 182.99C439.206 182.564 438.995 182.141 438.777 181.72C438.762 181.685 438.739 181.655 438.711 181.63C438.682 181.605 438.648 181.588 438.612 181.578C438.537 181.564 438.46 181.58 438.398 181.622C438.322 181.665 438.267 181.735 438.242 181.819C438.217 181.902 438.225 181.991 438.264 182.069C440.015 185.483 441.342 189.098 442.216 192.834C443.116 196.498 443.512 200.268 443.391 204.04C443.327 207.547 442.232 210.958 440.243 213.848C438.309 216.451 435.765 218.538 432.835 219.927C431.002 220.804 429.077 221.473 427.096 221.921Z" fill="white"/>
<path d="M420.896 222.242H421.729C421.822 222.136 421.912 222.028 422.001 221.921C423.898 219.616 425.183 216.87 425.737 213.937C426.41 210.276 425.887 206.496 424.244 203.157C423.785 202.221 423.245 201.326 422.629 200.485C422.411 200.532 422.195 200.585 421.983 200.649C423.602 202.794 424.691 205.292 425.161 207.938C425.581 210.418 425.441 212.96 424.753 215.379C424.065 217.798 422.846 220.033 421.184 221.921C421.091 222.028 420.994 222.136 420.896 222.242Z" fill="white"/>
<path d="M247.633 129.453H189.164L188.544 111.476C188.517 110.697 188.66 109.921 188.962 109.202C189.263 108.483 189.717 107.838 190.292 107.311C190.867 106.784 191.549 106.389 192.292 106.151C193.035 105.913 193.82 105.839 194.594 105.934L228.619 110.1H228.623C233.667 110.114 238.5 112.126 242.063 115.697C245.627 119.267 247.629 124.104 247.633 129.149V129.453Z" fill="#FFF171"/>
<path d="M221.573 65.686H180.794C180.252 65.6858 179.715 65.7925 179.214 66C178.713 66.2075 178.257 66.5117 177.874 66.8951C177.49 67.2786 177.186 67.7339 176.979 68.235C176.771 68.7361 176.664 69.2731 176.665 69.8155V110.594C176.664 111.137 176.771 111.674 176.979 112.175C177.186 112.676 177.49 113.131 177.874 113.515C178.257 113.898 178.713 114.202 179.214 114.41C179.715 114.617 180.252 114.724 180.794 114.724H221.573C222.115 114.724 222.652 114.617 223.154 114.41C223.655 114.202 224.11 113.898 224.493 113.515C224.877 113.131 225.181 112.676 225.389 112.175C225.596 111.674 225.703 111.137 225.703 110.594V69.8155C225.703 69.2731 225.596 68.7361 225.389 68.235C225.181 67.7339 224.877 67.2786 224.493 66.8951C224.11 66.5116 223.655 66.2075 223.154 66C222.652 65.7925 222.115 65.6858 221.573 65.686V65.686Z" fill="#CCCCCC"/>
<path d="M212.389 96.1789L193.136 99.9283C191.993 100.149 190.81 99.9084 189.846 99.2582C188.881 98.6081 188.214 97.6018 187.99 96.4603L186.51 88.8602C186.289 87.7181 186.53 86.535 187.18 85.5704C187.83 84.6058 188.837 83.9384 189.978 83.7148L209.232 79.9654C210.374 79.7443 211.557 79.9853 212.522 80.6355C213.486 81.2857 214.153 82.2919 214.377 83.4335L215.857 91.0335C216.078 92.1756 215.837 93.3587 215.187 94.3233C214.537 95.288 213.531 95.9553 212.389 96.1789Z" fill="#3F3D56"/>
<path d="M208.537 87.2002L193.844 90.0615C193.575 90.1139 193.296 90.0573 193.069 89.9043C192.842 89.7512 192.685 89.5143 192.633 89.2455C192.58 88.9768 192.637 88.6982 192.79 88.4712C192.943 88.2441 193.18 88.0872 193.449 88.0348L208.142 85.1735C208.411 85.1211 208.69 85.1777 208.917 85.3307C209.144 85.4838 209.301 85.7207 209.353 85.9895C209.405 86.2582 209.349 86.5368 209.196 86.7638C209.043 86.9909 208.806 87.1478 208.537 87.2002V87.2002Z" fill="white"/>
<path d="M205.681 91.4375L198.081 92.9176C197.812 92.9699 197.534 92.9133 197.307 92.7603C197.08 92.6073 196.923 92.3703 196.87 92.1015C196.818 91.8328 196.874 91.5542 197.028 91.3272C197.181 91.1001 197.418 90.9432 197.686 90.8909L205.286 89.4109C205.419 89.3849 205.556 89.3855 205.689 89.4125C205.822 89.4395 205.948 89.4923 206.061 89.5681C206.173 89.6439 206.27 89.7411 206.344 89.8541C206.419 89.9671 206.471 90.0938 206.497 90.2269C206.523 90.3599 206.522 90.4968 206.495 90.6297C206.468 90.7625 206.416 90.8888 206.34 91.0012C206.264 91.1136 206.167 91.21 206.054 91.2849C205.941 91.3598 205.814 91.4116 205.681 91.4375Z" fill="white"/>
<path d="M225.703 69.8155V75.2355H176.665V69.8155C176.664 69.2731 176.771 68.7361 176.979 68.235C177.186 67.7339 177.49 67.2786 177.874 66.8951C178.257 66.5117 178.713 66.2075 179.214 66C179.715 65.7925 180.252 65.6858 180.794 65.686H221.573C222.115 65.6858 222.652 65.7925 223.154 66C223.655 66.2075 224.11 66.5117 224.493 66.8951C224.877 67.2786 225.181 67.7339 225.389 68.235C225.596 68.7361 225.703 69.2731 225.703 69.8155Z" fill="#B3B3B3"/>
<path d="M323.627 76.9327C323.344 76.0189 322.864 75.1782 322.22 74.47C321.577 73.7617 320.787 73.2031 319.904 72.8334C319.022 72.4637 318.069 72.2921 317.113 72.3304C316.157 72.3688 315.221 72.6163 314.371 73.0555L258.269 52.927L255.798 66.9422L311.722 82.3209C312.554 83.6998 313.864 84.7255 315.402 85.2035C316.94 85.6815 318.6 85.5787 320.068 84.9146C321.535 84.2504 322.708 83.071 323.364 81.5999C324.02 80.1288 324.113 78.4682 323.627 76.9327V76.9327Z" fill="#FFB8B8"/>
<path opacity="0.2" d="M323.627 76.9327C323.344 76.0189 322.864 75.1782 322.22 74.47C321.577 73.7617 320.787 73.2031 319.904 72.8334C319.022 72.4637 318.069 72.2921 317.113 72.3304C316.157 72.3688 315.221 72.6163 314.371 73.0555L258.269 52.927L255.798 66.9422L311.722 82.3209C312.554 83.6998 313.864 84.7255 315.402 85.2035C316.94 85.6815 318.6 85.5787 320.068 84.9146C321.535 84.2504 322.708 83.071 323.364 81.5999C324.02 80.1288 324.113 78.4682 323.627 76.9327V76.9327Z" fill="black"/>
<path d="M268.227 55.4808L262.929 69.3212C262.779 69.715 262.545 70.0717 262.244 70.367C261.943 70.6623 261.581 70.8892 261.185 71.0323C260.788 71.1754 260.365 71.2314 259.945 71.1964C259.525 71.1614 259.117 71.0362 258.75 70.8294L245.874 63.5826C243.864 62.7998 242.246 61.2519 241.376 59.2782C240.505 57.3044 240.452 55.066 241.229 53.0535C242.006 51.0411 243.55 49.4189 245.521 48.5426C247.492 47.6662 249.731 47.6073 251.745 48.3787L266.123 51.5674C266.534 51.6589 266.922 51.8379 267.258 52.0924C267.594 52.347 267.871 52.6709 268.071 53.0423C268.271 53.4137 268.388 53.8237 268.415 54.2446C268.442 54.6654 268.378 55.087 268.227 55.4808V55.4808Z" fill="#FFF171"/>
<path d="M328.043 89.7481L307.94 98.8856L310.579 108.822C315.676 128.009 317.029 147.999 314.563 167.698V167.698L329.261 170.767L341.444 139.7L337.18 104.368L328.043 89.7481Z" fill="#FFF171"/>
<path d="M367.486 135.74C354.278 135.74 343.515 145.342 342.992 157.366H391.98C391.458 145.342 380.694 135.74 367.486 135.74Z" fill="#3F3D56"/>
<path d="M357.205 137.812C356.517 83.5365 325.606 88.5298 325.606 88.5298C325.606 88.5298 326.184 105.424 326.462 105.949C346.16 143.218 313.651 186.91 272.271 178.872C271.49 178.721 270.741 178.567 270.022 178.411C264.779 177.316 260.149 174.265 257.076 169.879C254.002 165.492 252.714 160.1 253.475 154.798C257.551 122.064 237.277 122.643 237.277 122.643H207.631L192.235 108.787C191.692 108.298 191.037 107.949 190.327 107.772C189.618 107.595 188.876 107.594 188.166 107.769C187.457 107.945 186.801 108.291 186.256 108.779C185.711 109.267 185.294 109.88 185.042 110.566L183.061 115.942C183.061 115.942 153.821 118.988 156.258 147.619H165.297C165.276 148.433 165.308 149.247 165.395 150.056L232.861 149.507C236.816 149.475 240.306 152.68 240.323 156.634C240.327 157.597 240.136 158.551 239.763 159.438C239.39 160.326 238.842 161.129 238.151 161.8C237.461 162.471 236.642 162.996 235.744 163.343C234.846 163.69 233.887 163.852 232.925 163.82L222.048 163.457C218.697 178.382 226.921 188.433 235.982 194.753C244.514 200.618 254.637 203.727 264.989 203.662H294.539C332.916 203.662 339.617 171.377 339.617 171.377C359.72 162.848 357.205 137.812 357.205 137.812Z" fill="#3F3D56"/>
<path d="M365.659 221.328C384.583 221.328 399.925 205.987 399.925 187.063C399.925 168.138 384.583 152.797 365.659 152.797C346.734 152.797 331.393 168.138 331.393 187.063C331.393 205.987 346.734 221.328 365.659 221.328Z" fill="#3F3D56"/>
<path d="M365.659 195.461C370.297 195.461 374.057 191.701 374.057 187.063C374.057 182.424 370.297 178.664 365.659 178.664C361.02 178.664 357.26 182.424 357.26 187.063C357.26 191.701 361.02 195.461 365.659 195.461Z" fill="white"/>
<path d="M192.655 221.328C214.439 221.328 232.099 203.669 232.099 181.885C232.099 160.101 214.439 142.441 192.655 142.441C170.871 142.441 153.212 160.101 153.212 181.885C153.212 203.669 170.871 221.328 192.655 221.328Z" fill="#3F3D56"/>
<path d="M192.655 191.552C197.994 191.552 202.323 187.224 202.323 181.885C202.323 176.545 197.994 172.217 192.655 172.217C187.316 172.217 182.988 176.545 182.988 181.885C182.988 187.224 187.316 191.552 192.655 191.552Z" fill="white"/>
<path d="M307.997 101.585L300.764 81.9401C300.387 80.9163 300.216 79.8282 300.259 78.738C300.303 77.6478 300.561 76.5769 301.018 75.5864C301.476 74.5958 302.124 73.7051 302.925 72.9651C303.727 72.225 304.667 71.6501 305.691 71.2732L326.427 63.6395C328.228 62.9761 330.143 62.6741 332.061 62.7506C333.979 62.8271 335.864 63.2807 337.606 64.0855C339.349 64.8903 340.917 66.0305 342.219 67.441C343.521 68.8515 344.533 70.5047 345.196 72.3062C345.794 73.9231 346.1 75.6337 346.099 77.3577C346.091 79.5468 345.595 81.7067 344.648 83.6803C343.701 85.6539 342.326 87.3917 340.623 88.7674C339.393 89.7542 338.011 90.5338 336.53 91.0756L307.997 101.585Z" fill="#3F3D56"/>
<path d="M345.794 77.3576C345.792 79.5021 345.31 81.6189 344.382 83.5523C343.454 85.4858 342.105 87.1866 340.433 88.5297C337.868 87.8532 335.481 86.6261 333.439 84.9339C331.396 83.2417 329.746 81.1249 328.604 78.7307C327.462 76.3365 326.855 73.7223 326.826 71.0698C326.796 68.4173 327.344 65.7902 328.433 63.3711C330.522 62.9167 332.687 62.9361 334.768 63.4277C336.849 63.9194 338.793 64.8709 340.458 66.2123C342.123 67.5538 343.467 69.2511 344.39 71.1798C345.314 73.1084 345.793 75.2193 345.794 77.3576V77.3576Z" fill="#FFF171"/>
<path d="M161.435 151.579C166.145 151.579 169.964 146.942 169.964 141.223C169.964 135.503 166.145 130.867 161.435 130.867C156.725 130.867 152.907 135.503 152.907 141.223C152.907 146.942 156.725 151.579 161.435 151.579Z" fill="#FFF171"/>
<path d="M274.169 177.88H281.637L285.19 158.51L274.167 158.511L274.169 177.88Z" fill="#FFB8B8"/>
<path d="M272.264 175.442L286.971 175.441H286.972C288.203 175.441 289.421 175.684 290.559 176.155C291.696 176.626 292.729 177.316 293.599 178.186C294.47 179.057 295.16 180.09 295.631 181.227C296.102 182.364 296.345 183.583 296.345 184.814V185.119L272.264 185.119L272.264 175.442Z" fill="#2F2E41"/>
<path d="M282.837 169.93C282.75 169.93 282.663 169.926 282.575 169.918L272.24 169.165C271.822 169.126 271.418 168.992 271.061 168.773C270.703 168.553 270.4 168.255 270.176 167.9C269.951 167.545 269.812 167.143 269.767 166.726C269.723 166.308 269.775 165.886 269.919 165.492L283.751 134.416C283.85 134.139 283.891 133.844 283.87 133.551C283.849 133.257 283.768 132.971 283.632 132.711C283.496 132.447 283.305 132.215 283.073 132.031C282.841 131.846 282.572 131.712 282.285 131.639C275.781 129.939 259.093 125.411 244.647 120.115C238.458 117.845 234.56 114.565 233.061 110.367C231.085 104.831 234.008 99.783 234.133 99.5712L234.231 99.4052L247.825 100.641L262.561 101.894L294.855 119.212C297.561 120.675 299.617 123.104 300.612 126.015C301.608 128.925 301.47 132.104 300.227 134.918L285.339 168.305C285.123 168.789 284.772 169.2 284.329 169.488C283.885 169.776 283.367 169.93 282.837 169.93Z" fill="#2F2E41"/>
<path d="M250.188 39.1581C258.452 39.1581 265.15 32.4594 265.15 24.1963C265.15 15.9331 258.452 9.23448 250.188 9.23448C241.925 9.23448 235.227 15.9331 235.227 24.1963C235.227 32.4594 241.925 39.1581 250.188 39.1581Z" fill="#FFB8B8"/>
<path d="M269.905 179.708H277.373L280.926 160.338L269.903 160.338L269.905 179.708Z" fill="#FFB8B8"/>
<path d="M267.999 177.269L282.707 177.269H282.708C283.938 177.269 285.157 177.511 286.294 177.982C287.432 178.453 288.465 179.143 289.335 180.014C290.206 180.884 290.896 181.917 291.367 183.055C291.838 184.192 292.081 185.411 292.081 186.641V186.946L268 186.947L267.999 177.269Z" fill="#2F2E41"/>
<path d="M278.573 171.758C278.486 171.758 278.399 171.753 278.311 171.745L267.976 170.993C267.558 170.954 267.154 170.82 266.796 170.6C266.439 170.381 266.136 170.082 265.912 169.727C265.687 169.372 265.548 168.971 265.503 168.553C265.459 168.136 265.511 167.714 265.655 167.32L279.487 136.243C279.586 135.966 279.627 135.672 279.606 135.378C279.585 135.085 279.504 134.799 279.368 134.538C279.232 134.275 279.041 134.043 278.809 133.858C278.577 133.673 278.308 133.54 278.021 133.466C271.517 131.766 254.829 127.239 240.382 121.942C234.193 119.673 230.295 116.393 228.797 112.194C226.821 106.659 229.744 101.611 229.869 101.399L229.967 101.233L243.561 102.468L258.297 103.722L290.591 121.039C293.297 122.502 295.353 124.931 296.348 127.842C297.344 130.753 297.206 133.932 295.963 136.746L281.075 170.133C280.859 170.616 280.508 171.027 280.064 171.316C279.621 171.604 279.103 171.757 278.573 171.758Z" fill="#2F2E41"/>
<path d="M254.803 47.642L238.964 42.1595C238.964 42.1595 229.022 49.7985 233.798 68.7488C236.292 78.5279 235.565 88.8504 231.727 98.1839C231.265 99.3387 230.732 100.464 230.131 101.553C230.131 101.553 247.797 122.874 264.245 107.036L257.849 76.2729C257.849 76.2729 267.9 55.8658 254.803 47.642Z" fill="#FFF171"/>
<path d="M252.046 39.6669C249.917 36.4795 248.236 32.0599 250.58 29.0272C252.895 26.0337 257.459 26.4747 261.004 25.1501C265.94 23.3051 268.804 17.5054 267.911 12.3115C267.018 7.11749 262.848 2.81185 257.881 1.05012C252.914 -0.711616 247.313 -0.13866 242.449 1.89008C236.461 4.38749 231.325 9.21855 229.171 15.3382C227.017 21.4579 228.169 28.8058 232.637 33.5095C237.427 38.5524 244.945 39.8963 251.9 39.8148" fill="#2F2E41"/>
<path d="M238.128 12.4782C235.445 14.6626 231.351 13.6923 228.471 11.7753C225.591 9.85818 223.253 7.12837 220.137 5.6253C214.643 2.97545 208 4.737 202.653 7.67217C197.306 10.6073 192.566 14.6624 186.917 16.9657C181.269 19.2691 174.061 19.3829 169.785 15.0337C168.732 18.0831 168.646 21.3829 169.538 24.483C170.43 27.5831 172.257 30.3325 174.77 32.3559C177.282 34.3794 180.358 35.5784 183.577 35.7894C186.796 36.0005 190.001 35.2132 192.756 33.535C198.945 29.7652 202.364 21.8611 209.305 19.7804C213.146 18.629 217.271 19.5564 221.153 20.5608C225.035 21.5652 229.083 22.6505 233 21.7954C236.918 20.9403 240.583 17.4197 240.084 13.4408L238.128 12.4782Z" fill="#2F2E41"/>
<path d="M322.882 76.3233C322.489 75.4514 321.908 74.6764 321.183 74.0529C320.457 73.4294 319.604 72.9726 318.682 72.7146C317.761 72.4566 316.795 72.4038 315.851 72.5598C314.907 72.7159 314.009 73.077 313.219 73.6177L255.062 60.5649L254.339 74.778L311.733 83.1392C312.729 84.4049 314.155 85.2611 315.741 85.5457C317.326 85.8303 318.961 85.5235 320.335 84.6833C321.709 83.8432 322.728 82.5281 323.197 80.9873C323.667 79.4465 323.555 77.787 322.882 76.3233V76.3233Z" fill="#FFB8B8"/>
<path d="M265.259 61.8706L261.709 76.259C261.608 76.6684 261.42 77.0512 261.158 77.3813C260.896 77.7115 260.565 77.9812 260.189 78.1722C259.814 78.3632 259.401 78.4709 258.98 78.488C258.558 78.5051 258.138 78.4312 257.748 78.2713L244.077 72.6685C241.984 72.141 240.186 70.8048 239.077 68.9531C237.968 67.1014 237.639 64.8855 238.162 62.7915C238.686 60.6976 240.018 58.8967 241.867 57.784C243.717 56.6713 245.932 56.3377 248.027 56.8563L262.688 58.2468C263.108 58.2867 263.514 58.4166 263.879 58.6277C264.244 58.8388 264.559 59.1261 264.803 59.47C265.047 59.8139 265.214 60.2064 265.293 60.6206C265.372 61.0349 265.36 61.4612 265.259 61.8706V61.8706Z" fill="#FFF171"/>
<path d="M316.164 87.616C318.519 87.616 320.428 85.7069 320.428 83.3518C320.428 80.9968 318.519 79.0876 316.164 79.0876C313.809 79.0876 311.9 80.9968 311.9 83.3518C311.9 85.7069 313.809 87.616 316.164 87.616Z" fill="#FFF171"/>
<path d="M505 221.633C505 221.794 504.935 221.949 504.821 222.063C504.707 222.177 504.552 222.242 504.391 222.242H0.609168C0.447606 222.242 0.292662 222.178 0.178421 222.064C0.0641795 221.949 0 221.794 0 221.633C0 221.471 0.0641795 221.316 0.178421 221.202C0.292662 221.088 0.447606 221.024 0.609168 221.024H504.391C504.552 221.024 504.707 221.089 504.821 221.203C504.935 221.317 505 221.471 505 221.633V221.633Z" fill="#3F3D56"/>
</g>
<defs>
<clipPath id="clip0">
<rect width="505" height="222.242" fill="white"/>
</clipPath>
</defs>
</svg>
