<svg width="271" height="542" viewBox="0 0 271 542" fill="none" xmlns="http://www.w3.org/2000/svg">
<path d="M270.217 128.781H267.239V47.2107C267.239 34.6897 262.265 22.6814 253.412 13.8277C244.558 4.97398 232.55 7.95662e-06 220.029 1.28153e-10H47.2108C41.011 -1.44453e-05 34.8719 1.22111 29.144 3.59366C23.4162 5.96621 18.2117 9.44372 13.8278 13.8276C9.44383 18.2115 5.96631 23.416 3.59373 29.1439C1.22116 34.8717 1.05058e-05 41.0108 0 47.2106V494.712C-1.06086e-05 507.233 4.97395 519.241 13.8277 528.095C22.6814 536.949 34.6896 541.923 47.2106 541.923H220.028C232.55 541.923 244.558 536.949 253.412 528.095C262.265 519.242 267.239 507.233 267.239 494.712V186.844H270.217V128.781Z" fill="#3F3D56"/>
<path d="M221.907 12H199.348C200.386 14.5434 200.782 17.3029 200.501 20.0354C200.221 22.7678 199.273 25.3894 197.741 27.6693C196.209 29.9491 194.139 31.8171 191.715 33.1088C189.291 34.4005 186.587 35.0762 183.84 35.0764H84.8346C82.0878 35.0762 79.3832 34.4005 76.959 33.1088C74.5348 31.8171 72.4656 29.949 70.9334 27.6692C69.4013 25.3894 68.4533 22.7678 68.173 20.0353C67.8927 17.3029 68.2887 14.5434 69.3261 12H48.2565C43.6265 12 39.0419 12.9119 34.7644 14.6837C30.4869 16.4555 26.6003 19.0525 23.3264 22.3263C20.0525 25.6002 17.4556 29.4868 15.6837 33.7643C13.9119 38.0418 13 42.6264 13 47.2564V494.101C13 498.731 13.9119 503.316 15.6837 507.593C17.4555 511.871 20.0525 515.757 23.3263 519.031C26.6002 522.305 30.4869 524.902 34.7644 526.674C39.0419 528.446 43.6265 529.358 48.2564 529.358H221.907C231.257 529.358 240.225 525.643 246.837 519.031C253.449 512.42 257.163 503.452 257.163 494.101V47.2565C257.163 42.6265 256.251 38.0419 254.479 33.7644C252.708 29.4869 250.111 25.6002 246.837 22.3264C243.563 19.0525 239.676 16.4555 235.399 14.6837C231.121 12.9119 226.537 12 221.907 12Z" fill="white"/>
<path d="M135.446 355.892C182.085 355.892 219.892 318.085 219.892 271.446C219.892 224.808 182.085 187 135.446 187C88.8078 187 51 224.808 51 271.446C51 318.085 88.8078 355.892 135.446 355.892Z" fill="#FFF177"/>
<path d="M159.536 275.085L138.536 296.715C138.079 297.175 137.533 297.538 136.931 297.78C136.33 298.023 135.685 298.14 135.036 298.125H134.966C134.316 298.139 133.67 298.022 133.067 297.779C132.464 297.537 131.916 297.175 131.456 296.715L110.466 275.085C110.397 275.005 110.317 274.935 110.246 274.865C109.409 273.966 108.961 272.772 109.003 271.544C109.044 270.317 109.57 269.155 110.466 268.315C111.425 267.414 112.691 266.912 114.006 266.912C115.322 266.912 116.588 267.414 117.547 268.315L129.986 281.315V247.795C130.044 246.504 130.598 245.285 131.532 244.392C132.466 243.498 133.709 243 135.001 243C136.294 243 137.536 243.498 138.471 244.392C139.405 245.285 139.958 246.504 140.016 247.795V281.315L152.446 268.315C153.407 267.414 154.674 266.912 155.991 266.912C157.308 266.912 158.576 267.414 159.536 268.315C159.607 268.385 159.676 268.455 159.756 268.535C160.592 269.435 161.038 270.628 160.996 271.855C160.955 273.082 160.43 274.243 159.536 275.085V275.085Z" fill="white"/>
</svg>
