<svg width="505" height="597" viewBox="0 0 505 597" fill="none" xmlns="http://www.w3.org/2000/svg">
<g clip-path="url(#clip0)">
<g clip-path="url(#clip1)">
<path d="M359.466 500.945L364.466 596.945C364.466 596.945 152.972 395.651 126.624 336.754C100.275 277.858 149.872 132.167 149.872 132.167L259.916 192.613L359.466 500.945Z" fill="#9F616A"/>
<path d="M35.1793 91.8691L2.63132 94.9689C2.63132 94.9689 -14.4177 132.167 38.2792 135.266L35.1793 91.8691Z" fill="#9F616A"/>
<path d="M35.1793 149.216L2.63132 152.315C2.63132 152.315 -14.4177 189.513 38.2792 192.613L35.1793 149.216Z" fill="#9F616A"/>
<path d="M35.1793 211.212L2.63132 214.312C2.63132 214.312 -14.4177 251.509 38.2792 254.609L35.1793 211.212Z" fill="#9F616A"/>
<path d="M44.4787 273.208L11.9308 276.308C11.9308 276.308 -5.11825 313.506 47.5786 316.605L44.4787 273.208Z" fill="#9F616A"/>
<path d="M19.3336 106.813H21.8032V39.1572C21.8032 34.015 22.816 28.9232 24.7839 24.1724C26.7517 19.4217 29.636 15.105 33.2721 11.4689C36.9081 7.83282 41.2248 4.94852 45.9756 2.98068C50.7263 1.01284 55.8182 3.93973e-06 60.9604 0H204.298C209.44 -1.05057e-05 214.532 1.01281 219.283 2.98064C224.033 4.94846 228.35 7.83275 231.986 11.4688C235.622 15.1049 238.507 19.4215 240.474 24.1723C242.442 28.9231 243.455 34.0149 243.455 39.1571V410.321C243.455 415.463 242.442 420.555 240.475 425.306C238.507 430.056 235.622 434.373 231.986 438.009C228.35 441.645 224.034 444.53 219.283 446.497C214.532 448.465 209.44 449.478 204.298 449.478H60.9606C50.5754 449.478 40.6156 445.353 33.2722 438.009C25.9288 430.666 21.8033 420.706 21.8033 410.321V154.971H19.3336V106.813Z" fill="#3F3D56"/>
<path d="M59.3805 10.1873H78.0908C77.2304 12.2969 76.9019 14.5856 77.1344 16.8519C77.3669 19.1183 78.1531 21.2927 79.4239 23.1836C80.6947 25.0745 82.411 26.6239 84.4216 27.6952C86.4322 28.7666 88.6755 29.327 90.9537 29.3272H173.07C175.348 29.327 177.591 28.7666 179.602 27.6952C181.613 26.6239 183.329 25.0745 184.6 23.1836C185.871 21.2927 186.657 19.1183 186.889 16.8519C187.122 14.5856 186.793 12.2968 185.933 10.1873H203.408C211.164 10.1873 218.602 13.2682 224.086 18.7521C229.57 24.2361 232.65 31.6739 232.65 39.4294V410.049C232.65 413.889 231.894 417.691 230.425 421.239C228.955 424.787 226.801 428.011 224.086 430.726C221.37 433.441 218.147 435.595 214.599 437.065C211.051 438.534 207.248 439.291 203.408 439.291H59.3805C55.5404 439.291 51.7379 438.534 48.19 437.065C44.6422 435.595 41.4186 433.441 38.7032 430.726C35.9878 428.011 33.8338 424.787 32.3643 421.239C30.8947 417.691 30.1383 413.889 30.1383 410.049V410.049V39.4295C30.1383 35.5893 30.8947 31.7868 32.3643 28.239C33.8338 24.6912 35.9878 21.4675 38.7032 18.7522C41.4186 16.0368 44.6422 13.8828 48.19 12.4133C51.7379 10.9437 55.5404 10.1873 59.3805 10.1873Z" fill="white"/>
<path d="M505.466 550.945L331.986 353.028L325.787 225.936L260.691 117.443L242.092 70.9454C242.092 70.9454 198.694 75.5951 234.342 163.94L249.066 211.212C235.794 239.799 228.918 270.938 228.918 302.456V410.78C228.918 436.286 350.468 575.222 364.616 596.445L505.466 550.945Z" fill="#9F616A"/>
<path opacity="0.2" d="M247.195 126.636L260.136 120.276L259.695 119.378L247.738 125.255L229.688 77.932L228.754 78.289L247.195 126.636Z" fill="black"/>
<path opacity="0.2" d="M2.80466 94.4982L2.45895 95.4366L21.6298 102.499L21.9755 101.56L2.80466 94.4982Z" fill="black"/>
<path opacity="0.2" d="M2.80466 152.498L2.45895 153.437L21.6298 160.499L21.9755 159.56L2.80466 152.498Z" fill="black"/>
<path opacity="0.2" d="M2.80466 214.498L2.45895 215.437L21.6298 222.499L21.9755 221.56L2.80466 214.498Z" fill="black"/>
<path opacity="0.2" d="M12.8483 276.517L12.4157 277.418L21.7492 281.898L22.1818 280.996L12.8483 276.517Z" fill="black"/>
<path d="M207 71H114V91H207V71Z" fill="#E5E5E5"/>
<path d="M206.858 107H56V121.892H206.858V107Z" fill="#E5E5E5"/>
<path d="M206.858 128H56V142.892H206.858V128Z" fill="#E5E5E5"/>
<path d="M76 96C84.2843 96 91 89.2843 91 81C91 72.7157 84.2843 66 76 66C67.7157 66 61 72.7157 61 81C61 89.2843 67.7157 96 76 96Z" fill="#E5E5E5"/>
<path d="M207 180H114V200H207V180Z" fill="#E5E5E5"/>
<path d="M206.858 216H56V230.892H206.858V216Z" fill="#E5E5E5"/>
<path d="M206.858 237H56V251.892H206.858V237Z" fill="#E5E5E5"/>
<path d="M79 205C87.2843 205 94 198.284 94 190C94 181.716 87.2843 175 79 175C70.7157 175 64 181.716 64 190C64 198.284 70.7157 205 79 205Z" fill="#E5E5E5"/>
<path d="M206 307H113V327H206V307Z" fill="#E5E5E5"/>
<path d="M205.858 343H55V357.892H205.858V343Z" fill="#E5E5E5"/>
<path d="M205.858 364H55V378.892H205.858V364Z" fill="#E5E5E5"/>
<path d="M76 332C84.2843 332 91 325.284 91 317C91 308.716 84.2843 302 76 302C67.7157 302 61 308.716 61 317C61 325.284 67.7157 332 76 332Z" fill="#E5E5E5"/>
</g>
</g>
<defs>
<clipPath id="clip0">
<rect width="505" height="597" fill="white"/>
</clipPath>
<clipPath id="clip1">
<rect width="505.466" height="596.945" fill="white"/>
</clipPath>
</defs>
</svg>
